<svg width="19" height="18" viewBox="0 0 19 18" fill="none" xmlns="http://www.w3.org/2000/svg">
  <path fill-rule="evenodd" clip-rule="evenodd" d="M8.06153 0C3.64325 0 0.0615234 3.58172 0.0615234 8C0.0615234 12.4183 3.64325 16 8.06153 16C9.91028 16 11.6125 15.373 12.9672 14.3199L16.3544 17.7071C16.745 18.0977 17.3781 18.0977 17.7687 17.7071C18.1592 17.3166 18.1592 16.6835 17.7687 16.2929L14.3814 12.9057C15.4345 11.551 16.0615 9.84871 16.0615 8C16.0615 3.58172 12.4798 0 8.06153 0ZM2.06153 8C2.06153 4.68629 4.74782 2 8.06153 2C11.3753 2 14.0615 4.68629 14.0615 8C14.0615 11.3137 11.3753 14 8.06153 14C4.74782 14 2.06153 11.3137 2.06153 8Z" fill="#888888" />
</svg>