<svg width="16" height="16" viewBox="0 0 16 16" fill="none" xmlns="http://www.w3.org/2000/svg">
<path d="M11.0013 4.00002V11.6667C11.0013 12.3739 10.7204 13.0522 10.2203 13.5523C9.72016 14.0524 9.04188 14.3334 8.33464 14.3334C7.62739 14.3334 6.94911 14.0524 6.44902 13.5523C5.94892 13.0522 5.66797 12.3739 5.66797 11.6667V3.33335C5.66797 2.89133 5.84356 2.4674 6.15612 2.15484C6.46868 1.84228 6.89261 1.66669 7.33464 1.66669C7.77666 1.66669 8.20059 1.84228 8.51315 2.15484C8.82571 2.4674 9.0013 2.89133 9.0013 3.33335V10.3334C9.0013 10.5102 8.93106 10.6797 8.80604 10.8048C8.68102 10.9298 8.51145 11 8.33464 11C8.15782 11 7.98826 10.9298 7.86323 10.8048C7.73821 10.6797 7.66797 10.5102 7.66797 10.3334V4.00002H6.66797V10.3334C6.66797 10.7754 6.84356 11.1993 7.15612 11.5119C7.46868 11.8244 7.89261 12 8.33464 12C8.77666 12 9.20059 11.8244 9.51315 11.5119C9.82571 11.1993 10.0013 10.7754 10.0013 10.3334V3.33335C10.0013 2.62611 9.72035 1.94783 9.22025 1.44774C8.72016 0.947639 8.04188 0.666687 7.33464 0.666687C6.62739 0.666687 5.94911 0.947639 5.44902 1.44774C4.94892 1.94783 4.66797 2.62611 4.66797 3.33335V11.6667C4.66797 12.6391 5.05428 13.5718 5.74191 14.2594C6.42954 14.947 7.36217 15.3334 8.33464 15.3334C9.3071 15.3334 10.2397 14.947 10.9274 14.2594C11.615 13.5718 12.0013 12.6391 12.0013 11.6667V4.00002H11.0013Z" fill="#2FBFC6"/>
</svg>
