<svg width="24" height="24" viewBox="0 0 24 24" fill="none" xmlns="http://www.w3.org/2000/svg">
  <path d="M4.00156 10.4V9.6H3.20156V10.4H4.00156ZM10.4016 10.4V9.6H9.60156V10.4H10.4016ZM10.4016 16.8H9.60156V17.6H10.4016V16.8ZM21.6016 5.6H22.4016V5.2688L22.168 5.0336L21.6016 5.6ZM16.8016 0.8L17.368 0.2336L17.1328 0H16.8016V0.8ZM4.00156 11.2H5.60156V9.6H4.00156V11.2ZM4.80156 17.6V13.6H3.20156V17.6H4.80156ZM4.80156 13.6V10.4H3.20156V13.6H4.80156ZM5.60156 12.8H4.00156V14.4H5.60156V12.8ZM6.40156 12C6.40156 12.2122 6.31728 12.4157 6.16725 12.5657C6.01722 12.7157 5.81374 12.8 5.60156 12.8V14.4C6.23808 14.4 6.84853 14.1471 7.29862 13.6971C7.74871 13.247 8.00156 12.6365 8.00156 12H6.40156ZM5.60156 11.2C5.81374 11.2 6.01722 11.2843 6.16725 11.4343C6.31728 11.5843 6.40156 11.7878 6.40156 12H8.00156C8.00156 11.3635 7.74871 10.753 7.29862 10.3029C6.84853 9.85286 6.23808 9.6 5.60156 9.6V11.2ZM9.60156 10.4V16.8H11.2016V10.4H9.60156ZM10.4016 17.6H12.0016V16H10.4016V17.6ZM14.4016 15.2V12H12.8016V15.2H14.4016ZM12.0016 9.6H10.4016V11.2H12.0016V9.6ZM14.4016 12C14.4016 11.3635 14.1487 10.753 13.6986 10.3029C13.2485 9.85286 12.6381 9.6 12.0016 9.6V11.2C12.2137 11.2 12.4172 11.2843 12.5672 11.4343C12.7173 11.5843 12.8016 11.7878 12.8016 12H14.4016ZM12.0016 17.6C12.6381 17.6 13.2485 17.3471 13.6986 16.8971C14.1487 16.447 14.4016 15.8365 14.4016 15.2H12.8016C12.8016 15.4122 12.7173 15.6157 12.5672 15.7657C12.4172 15.9157 12.2137 16 12.0016 16V17.6ZM16.0016 9.6V17.6H17.6016V9.6H16.0016ZM16.8016 11.2H20.8016V9.6H16.8016V11.2ZM16.8016 14.4H19.2016V12.8H16.8016V14.4ZM3.20156 8V2.4H1.60156V8H3.20156ZM20.8016 5.6V8H22.4016V5.6H20.8016ZM4.00156 1.6H16.8016V0H4.00156V1.6ZM16.2352 1.3664L21.0352 6.1664L22.168 5.0336L17.368 0.2336L16.2352 1.3664ZM3.20156 2.4C3.20156 2.18783 3.28585 1.98434 3.43588 1.83431C3.58591 1.68429 3.78939 1.6 4.00156 1.6V0C3.36504 0 2.75459 0.252856 2.30451 0.702944C1.85442 1.15303 1.60156 1.76348 1.60156 2.4H3.20156ZM1.60156 19.2V21.6H3.20156V19.2H1.60156ZM4.00156 24H20.0016V22.4H4.00156V24ZM22.4016 21.6V19.2H20.8016V21.6H22.4016ZM20.0016 24C20.6381 24 21.2485 23.7471 21.6986 23.2971C22.1487 22.847 22.4016 22.2365 22.4016 21.6H20.8016C20.8016 21.8122 20.7173 22.0157 20.5672 22.1657C20.4172 22.3157 20.2137 22.4 20.0016 22.4V24ZM1.60156 21.6C1.60156 22.2365 1.85442 22.847 2.30451 23.2971C2.75459 23.7471 3.36504 24 4.00156 24V22.4C3.78939 22.4 3.58591 22.3157 3.43588 22.1657C3.28585 22.0157 3.20156 21.8122 3.20156 21.6H1.60156Z" fill="#2FBFC6" />
</svg>