<svg width="18" height="21" viewBox="0 0 18 21" fill="none" xmlns="http://www.w3.org/2000/svg">
<path d="M13.75 6.75H17.5V17.375C17.5 19.1328 16.0938 20.5 14.375 20.5H3.125C1.36719 20.5 0 19.1328 0 17.375V6.75H3.75V5.5C3.75 2.76562 5.97656 0.5 8.75 0.5C11.4844 0.5 13.75 2.76562 13.75 5.5V6.75ZM6.25 5.5V6.75H11.25V5.5C11.25 4.13281 10.1172 3 8.75 3C7.34375 3 6.25 4.13281 6.25 5.5ZM12.5 10.1875C13.0078 10.1875 13.4375 9.79688 13.4375 9.25C13.4375 8.74219 13.0078 8.3125 12.5 8.3125C11.9531 8.3125 11.5625 8.74219 11.5625 9.25C11.5625 9.79688 11.9531 10.1875 12.5 10.1875ZM5 10.1875C5.50781 10.1875 5.9375 9.79688 5.9375 9.25C5.9375 8.74219 5.50781 8.3125 5 8.3125C4.45312 8.3125 4.0625 8.74219 4.0625 9.25C4.0625 9.79688 4.45312 10.1875 5 10.1875Z" fill="#212123"/>
</svg>
